<?xml version="1.0" encoding="UTF-8"?>
<svg id="Layer_1" xmlns="http://www.w3.org/2000/svg" version="1.1" viewBox="0 0 37.31 49.51">
  <!-- Generator: Adobe Illustrator 30.2.1, SVG Export Plug-In . SVG Version: 2.1.1 Build 1)  -->
  <defs>
    <style>
      .st0 {
        fill: none;
      }
    </style>
  </defs>
  <polyline class="st0" points="-27.39 -25.25 69.18 -25.25 69.18 74.75 -30.82 74.75 -30.82 -25.25"/>
  <g>
    <path d="M13.81.53c1.12-.34,2.29-.52,3.48-.53h.54l-.03.53c-.1,1.62-.35,3.34-.58,4.84l-.03.17c-.18,1.22-.35,2.37-.45,3.45l-.16,1.64c-.33,3.29-.66,6.69-.22,9.89.15,1.07.31,2.14.46,3.19.82,5.52,1.59,10.71.72,16.39-.2,1.31-.35,2.69-.52,4.15l-.02.17c-.16,1.45-.34,3.01-.57,4.54l-.07.48-.48-.06C6.83,48.27,0,37.67,0,24.74,0,12.88,5.94,2.9,13.81.53M15.68,1.13C7.45,2.39,1,12.52,1,24.74s6.34,22.22,14.52,23.58c.19-1.36.35-2.72.5-4.01l.02-.17c.17-1.47.32-2.86.52-4.19.85-5.53.09-10.65-.72-16.07-.16-1.08-.32-2.15-.47-3.22-.46-3.32-.11-6.78.22-10.12l.16-1.64c.1-1.11.27-2.27.46-3.5l.03-.17c.2-1.3.41-2.78.53-4.2-.36.02-.72.06-1.08.11"/>
    <path d="M19.92,49.5s-.1,0-.15-.01h-.58l.04-.58c.19-1.27.36-2.65.56-4.46.17-1.53.33-2.96.53-4.31.88-5.73.1-10.94-.72-16.47l-.03-.23c-.15-.98-.29-1.97-.43-2.96-.44-3.18-.1-6.56.22-9.83l.16-1.65c.1-1.07.27-2.22.45-3.43l.02-.16c.22-1.49.47-3.21.58-4.86l.03-.51.51.05c9.09.88,16.2,11.71,16.2,24.67,0,13.65-7.8,24.75-17.4,24.75h0ZM21.53,1.14c-.12,1.52-.35,3.07-.55,4.42l-.02.16c-.18,1.2-.35,2.33-.44,3.38l-.16,1.65c-.32,3.21-.65,6.53-.23,9.6.14.99.28,1.97.43,2.95l.03.23c.83,5.6,1.62,10.89.72,16.77-.2,1.33-.36,2.75-.53,4.25-.17,1.58-.33,2.82-.49,3.95,8.87-.29,16.03-10.83,16.03-23.75,0-12.2-6.46-22.43-14.79-23.61Z"/>
  </g>
</svg>