<?xml version="1.0" encoding="UTF-8"?>
<svg id="Layer_1" data-name="Layer 1" xmlns="http://www.w3.org/2000/svg" viewBox="0 0 60.41 80.1">
  <path d="M6.6,43.8c.8-2,1.3-4,1.6-5.5.8-3,1.4-6,1.9-9.7l.5-2.5c2.3-6.8,6.9-12.1,12.9-15.1,5.6-2.7,12-3.1,18-1,6.7,2.3,11.9,7.5,14.5,14.5.1.2.2.5.3,1,.4,1.6.6,3.2.7,4.6,0,.8.7,1.4,1.5,1.4h.1c.1,0,.1-.1.2-.1s.2.1.3.1c.8-.1,1.4-.8,1.3-1.7-.2-1.8-.6-3.5-1.2-5.1-.1-.6-.2-1.1-.4-1.3C55.1,8.8,44.4,0,30.2,0c-1,0-2,0-3,.2-.8.2-1.3,1-1.1,1.8s.9,1.3,1.8,1.1c.7-.1,1.4-.1,2.3-.1,7,0,12.9,2.3,17.5,6.6-1.6-1-3.3-1.8-5.1-2.4-6.8-2.3-14-1.9-20.3,1.2-6.7,3.3-11.8,9.2-14.5,17l-.5,2.6c-.5,3.7-1.1,6.6-1.9,9.5-.3,1.5-.8,3.4-1.5,5.3-.1.3-.2.6-.3.9-.2-2.1-.7-4.1-.7-6.3,0-5,.6-9.6,1.8-13.9.2-.8-.2-1.6-1-1.8-.8-.2-1.6.2-1.8,1-1.3,4.5-1.9,9.5-1.9,14.7,0,4.6.5,9.1,1.4,13.1,0,.8.7,1.5,1.5,1.5.6,0,1.1-.4,1.3-1,0,0,.1,0,.1-.1.9-2.5,1.7-5,2.3-7.1Z"/>
  <path d="M59,33.8c-.8-.2-1.5.6-1.6,1.4-.1,1.1-.3,2.2-.6,3.4-1.2,8.8-3.6,17.9-7.2,27.3h0c-.4.5-.3,1.3.1,1.8.3.3.7.5,1.1.5s.7-.1,1-.4c.2-.2.4-.5.5-.8h0c3.7-9.6,6.2-19,7.3-27.9.3-1.3.5-2.5.6-3.7.3-.8-.3-1.5-1.2-1.6Z"/>
  <path d="M24,15.8c-4,2.2-7.2,6.1-9,11.2l-.4,2.1c-.4,2.4-.8,4.7-1.4,7.3-.2.8.3,1.6,1.1,1.8h.4c.7,0,1.3-.5,1.4-1.1.6-2.6,1.1-5.1,1.5-7.5l.3-1.6c1.5-4.2,4.2-7.5,7.6-9.4.7-.4,1-1.3.6-2-.5-.9-1.4-1.2-2.1-.8Z"/>
  <path d="M52.8,36.6c.5-1.8.6-3.7.4-5.6-.5-7.7-5.8-14.5-13.1-17-3.6-1.2-7.4-1.4-11-.4-.8.2-1.3,1-1,1.8.2.8,1,1.2,1.8,1.1,3-.8,6.2-.7,9.2.4,6.1,2.1,10.6,7.8,11.1,14.4.2,1.6.1,3.2-.3,5-.1.2-.2.3-.2.5-1.6,12.3-5.8,25.4-12.6,39-.1.2-.2.4-.3.7-.2.8.2,1.6,1,1.8.2,0,.3.1.4.1.6,0,1.3-.4,1.5-1.1.1-.2.2-.4.2-.5,6.8-13.6,11.1-26.8,12.8-39.5.1-.2.1-.5.1-.7Z"/>
  <path d="M13.6,40.6c-.8-.2-1.6.3-1.8,1.1-1.6,6-3.8,12-7,18.4-.4.7-.1,1.6.7,2,.2.1.4.2.7.2.5,0,1.1-.3,1.3-.8,3.2-6.6,5.6-12.8,7.2-19,.2-.9-.3-1.7-1.1-1.9Z"/>
  <path d="M22.1,28.6l-.2.6c-.3.8.2,1.6,1,1.9.8.2,1.6-.2,1.9-1l.2-.5c.8-2.3,2.5-4.2,4.8-5.3s4.8-1.2,7.1-.4c3.7,1.3,6.1,4.6,6.3,8.5,0,.8.7,1.4,1.5,1.4h.1c.8,0,1.5-.7,1.4-1.6-.2-5.1-3.5-9.5-8.3-11.2-3.1-1.1-6.4-.9-9.3.6-3.2,1.4-5.4,3.9-6.5,7Z"/>
  <path d="M44.4,43l.3-1.4c.3-1.3.5-2.6.7-3.8.1-.8-.5-1.6-1.3-1.7-.8,0-1.6.5-1.7,1.3-.2,1.2-.4,2.4-.6,3.7l-.3,1.3c-.4,1.5-.7,3.1-1.1,4.7-2.5,9.9-6.6,19.9-12.4,30.8-.4.7-.1,1.6.6,2,.2.1.5.2.7.2.5,0,1.1-.3,1.3-.8,5.9-11.1,10.1-21.3,12.7-31.4.4-1.8.7-3.3,1.1-4.9Z"/>
  <path d="M22.6,33.7c-.8-.2-1.6.4-1.7,1.2-2.1,11.3-6,22.2-11.7,32.4-.4.7-.1,1.6.6,2,.2.1.5.2.7.2.5,0,1-.3,1.3-.8,5.8-10.5,9.9-21.7,12-33.3.2-.8-.3-1.6-1.2-1.7Z"/>
  <path d="M36.5,37.2c-.8-.2-1.6.4-1.7,1.2-2.1,11.7-6.4,23.3-13.6,36.6-.1.3-.3.5-.6.8-.6.6-.6,1.5,0,2.1.3.3.7.4,1.1.4s.8-.1,1.1-.4c.5-.6.9-1.1,1.1-1.6,7.3-13.4,11.7-25.3,13.8-37.4.2-.8-.4-1.6-1.2-1.7Z"/>
  <path d="M31.4,34.7c.2-1,.4-2,.4-2.7.2-.5.6-1,1.1-1.2.3-.2.8-.3,1.5,0,.8.3,1.3,1,1.3,2-.3.7,0,1.5.7,1.9s1.6.1,2-.6c.3-.5.3-1.1.3-1.4,0-2.2-1.4-4.1-3.3-4.7-1.2-.5-2.6-.4-3.8.1-1.2.6-2.2,1.6-2.7,3.2-.1.9-.3,1.9-.5,2.8-.3,1.8-.7,3.6-1.1,5.4-2.5,11.4-6.6,22.2-12.8,33-.1.1-.1.2-.2.4-.2.6,0,1.3.5,1.7.3.2.6.4,1,.4s.8-.2,1.1-.5c.2-.2.3-.5.4-.7,6.2-11,10.4-22,12.9-33.5.5-1.9.9-3.8,1.2-5.6Z"/>
  <path d="M5,19.5c.6,0,1.1-.3,1.4-.9,3.3-7.6,9-12.7,16.4-14.6.8-.2,1.3-1,1.1-1.8s-1.1-1.2-1.8-1.1C13.9,3.2,7.3,9,3.6,17.4c-.3.8,0,1.6.8,2,.2.1.4.1.6.1Z"/>
</svg>